solid base_link_bounding1
   facet normal -9.984180e-01 -5.622767e-02 0.000000e+00
      outer loop
         vertex 1.217902e+03 1.187034e+05 0.000000e+00
         vertex 2.769679e+02 1.354112e+05 4.580000e+05
         vertex 2.769679e+02 1.354112e+05 0.000000e+00
      endloop
   endfacet
   facet normal -9.661811e-01 2.578643e-01 0.000000e+00
      outer loop
         vertex 2.769679e+02 1.354112e+05 0.000000e+00
         vertex 2.769679e+02 1.354112e+05 4.580000e+05
         vertex 4.592166e+03 1.515797e+05 4.580000e+05
      endloop
   endfacet
   facet normal -9.661811e-01 2.578643e-01 0.000000e+00
      outer loop
         vertex 2.769679e+02 1.354112e+05 0.000000e+00
         vertex 4.592166e+03 1.515797e+05 4.580000e+05
         vertex 4.592166e+03 1.515797e+05 0.000000e+00
      endloop
   endfacet
   facet normal 0.000000e+00 0.000000e+00 -1.000000e+00
      outer loop
         vertex 1.217902e+03 1.187034e+05 0.000000e+00
         vertex 2.769679e+02 1.354112e+05 0.000000e+00
         vertex 7.321164e+03 1.031217e+05 0.000000e+00
      endloop
   endfacet
   facet normal 0.000000e+00 0.000000e+00 -1.000000e+00
      outer loop
         vertex 7.321164e+03 1.031217e+05 0.000000e+00
         vertex 2.769679e+02 1.354112e+05 0.000000e+00
         vertex 4.592166e+03 1.515797e+05 0.000000e+00
      endloop
   endfacet
   facet normal -9.311194e-01 -3.647144e-01 0.000000e+00
      outer loop
         vertex 7.321164e+03 1.031217e+05 0.000000e+00
         vertex 1.217902e+03 1.187034e+05 4.580000e+05
         vertex 1.217902e+03 1.187034e+05 0.000000e+00
      endloop
   endfacet
   facet normal -9.984180e-01 -5.622767e-02 0.000000e+00
      outer loop
         vertex 1.217902e+03 1.187034e+05 0.000000e+00
         vertex 1.217902e+03 1.187034e+05 4.580000e+05
         vertex 2.769679e+02 1.354112e+05 4.580000e+05
      endloop
   endfacet
   facet normal -0.000000e+00 0.000000e+00 1.000000e+00
      outer loop
         vertex 2.769679e+02 1.354112e+05 4.580000e+05
         vertex 1.217902e+03 1.187034e+05 4.580000e+05
         vertex 4.592166e+03 1.515797e+05 4.580000e+05
      endloop
   endfacet
   facet normal -8.376220e-01 5.462504e-01 0.000000e+00
      outer loop
         vertex 4.592166e+03 1.515797e+05 0.000000e+00
         vertex 4.592166e+03 1.515797e+05 4.580000e+05
         vertex 1.373331e+04 1.655967e+05 4.580000e+05
      endloop
   endfacet
   facet normal 0.000000e+00 0.000000e+00 1.000000e+00
      outer loop
         vertex 4.592166e+03 1.515797e+05 4.580000e+05
         vertex 1.217902e+03 1.187034e+05 4.580000e+05
         vertex 7.321164e+03 1.031217e+05 4.580000e+05
      endloop
   endfacet
   facet normal -0.000000e+00 0.000000e+00 1.000000e+00
      outer loop
         vertex 4.592166e+03 1.515797e+05 4.580000e+05
         vertex 7.321164e+03 1.031217e+05 4.580000e+05
         vertex 1.373331e+04 1.655967e+05 4.580000e+05
      endloop
   endfacet
   facet normal -8.376220e-01 5.462504e-01 0.000000e+00
      outer loop
         vertex 4.592166e+03 1.515797e+05 0.000000e+00
         vertex 1.373331e+04 1.655967e+05 4.580000e+05
         vertex 1.373331e+04 1.655967e+05 0.000000e+00
      endloop
   endfacet
   facet normal 0.000000e+00 0.000000e+00 -1.000000e+00
      outer loop
         vertex 4.592166e+03 1.515797e+05 0.000000e+00
         vertex 1.373331e+04 1.655967e+05 0.000000e+00
         vertex 7.321164e+03 1.031217e+05 0.000000e+00
      endloop
   endfacet
   facet normal -8.618647e-01 -5.071383e-01 -0.000000e+00
      outer loop
         vertex 7.321164e+03 1.031217e+05 4.580000e+05
         vertex 7.321164e+03 1.031217e+05 0.000000e+00
         vertex 6.800000e+04 0.000000e+00 4.580000e+05
      endloop
   endfacet
   facet normal -8.618647e-01 -5.071383e-01 -0.000000e+00
      outer loop
         vertex 6.800000e+04 0.000000e+00 4.580000e+05
         vertex 7.321164e+03 1.031217e+05 0.000000e+00
         vertex 6.800000e+04 0.000000e+00 0.000000e+00
      endloop
   endfacet
   facet normal -9.311194e-01 -3.647144e-01 0.000000e+00
      outer loop
         vertex 7.321164e+03 1.031217e+05 0.000000e+00
         vertex 7.321164e+03 1.031217e+05 4.580000e+05
         vertex 1.217902e+03 1.187034e+05 4.580000e+05
      endloop
   endfacet
   facet normal 0.000000e+00 0.000000e+00 -1.000000e+00
      outer loop
         vertex 7.321164e+03 1.031217e+05 0.000000e+00
         vertex 1.373331e+04 1.655967e+05 0.000000e+00
         vertex 4.245793e+04 1.819410e+05 0.000000e+00
      endloop
   endfacet
   facet normal 0.000000e+00 0.000000e+00 -1.000000e+00
      outer loop
         vertex 7.321164e+03 1.031217e+05 0.000000e+00
         vertex 4.245793e+04 1.819410e+05 0.000000e+00
         vertex 6.800000e+04 0.000000e+00 0.000000e+00
      endloop
   endfacet
   facet normal -6.255576e-01 7.801780e-01 0.000000e+00
      outer loop
         vertex 1.373331e+04 1.655967e+05 0.000000e+00
         vertex 1.373331e+04 1.655967e+05 4.580000e+05
         vertex 2.678910e+04 1.760650e+05 4.580000e+05
      endloop
   endfacet
   facet normal -0.000000e+00 0.000000e+00 1.000000e+00
      outer loop
         vertex 1.373331e+04 1.655967e+05 4.580000e+05
         vertex 7.321164e+03 1.031217e+05 4.580000e+05
         vertex 2.678910e+04 1.760650e+05 4.580000e+05
      endloop
   endfacet
   facet normal 0.000000e+00 -0.000000e+00 1.000000e+00
      outer loop
         vertex 6.800000e+04 0.000000e+00 4.580000e+05
         vertex 1.068000e+05 1.950000e+05 4.580000e+05
         vertex 7.321164e+03 1.031217e+05 4.580000e+05
      endloop
   endfacet
   facet normal 0.000000e+00 0.000000e+00 1.000000e+00
      outer loop
         vertex 7.321164e+03 1.031217e+05 4.580000e+05
         vertex 1.068000e+05 1.950000e+05 4.580000e+05
         vertex 4.245793e+04 1.819410e+05 4.580000e+05
      endloop
   endfacet
   facet normal 0.000000e+00 0.000000e+00 1.000000e+00
      outer loop
         vertex 7.321164e+03 1.031217e+05 4.580000e+05
         vertex 4.245793e+04 1.819410e+05 4.580000e+05
         vertex 2.678910e+04 1.760650e+05 4.580000e+05
      endloop
   endfacet
   facet normal -6.255576e-01 7.801780e-01 0.000000e+00
      outer loop
         vertex 1.373331e+04 1.655967e+05 0.000000e+00
         vertex 2.678910e+04 1.760650e+05 4.580000e+05
         vertex 2.678910e+04 1.760650e+05 0.000000e+00
      endloop
   endfacet
   facet normal 0.000000e+00 0.000000e+00 -1.000000e+00
      outer loop
         vertex 1.373331e+04 1.655967e+05 0.000000e+00
         vertex 2.678910e+04 1.760650e+05 0.000000e+00
         vertex 4.245793e+04 1.819410e+05 0.000000e+00
      endloop
   endfacet
   facet normal 0.000000e+00 -1.000000e+00 0.000000e+00
      outer loop
         vertex 6.800000e+04 0.000000e+00 4.580000e+05
         vertex 6.800000e+04 0.000000e+00 0.000000e+00
         vertex 2.680000e+05 0.000000e+00 4.580000e+05
      endloop
   endfacet
   facet normal 0.000000e+00 -0.000000e+00 1.000000e+00
      outer loop
         vertex 2.680000e+05 0.000000e+00 4.580000e+05
         vertex 3.286788e+05 1.031217e+05 4.580000e+05
         vertex 6.800000e+04 0.000000e+00 4.580000e+05
      endloop
   endfacet
   facet normal 0.000000e+00 0.000000e+00 1.000000e+00
      outer loop
         vertex 6.800000e+04 0.000000e+00 4.580000e+05
         vertex 3.286788e+05 1.031217e+05 4.580000e+05
         vertex 1.068000e+05 1.950000e+05 4.580000e+05
      endloop
   endfacet
   facet normal 0.000000e+00 -1.000000e+00 -0.000000e+00
      outer loop
         vertex 2.680000e+05 0.000000e+00 4.580000e+05
         vertex 6.800000e+04 0.000000e+00 0.000000e+00
         vertex 2.680000e+05 0.000000e+00 0.000000e+00
      endloop
   endfacet
   facet normal 0.000000e+00 0.000000e+00 -1.000000e+00
      outer loop
         vertex 6.800000e+04 0.000000e+00 0.000000e+00
         vertex 4.245793e+04 1.819410e+05 0.000000e+00
         vertex 1.068000e+05 1.950000e+05 0.000000e+00
      endloop
   endfacet
   facet normal 0.000000e+00 0.000000e+00 -1.000000e+00
      outer loop
         vertex 6.800000e+04 0.000000e+00 0.000000e+00
         vertex 1.068000e+05 1.950000e+05 0.000000e+00
         vertex 2.680000e+05 0.000000e+00 0.000000e+00
      endloop
   endfacet
   facet normal -1.989070e-01 9.800184e-01 0.000000e+00
      outer loop
         vertex 4.245793e+04 1.819410e+05 4.580000e+05
         vertex 1.068000e+05 1.950000e+05 0.000000e+00
         vertex 4.245793e+04 1.819410e+05 0.000000e+00
      endloop
   endfacet
   facet normal -3.511293e-01 9.363270e-01 0.000000e+00
      outer loop
         vertex 2.678910e+04 1.760650e+05 0.000000e+00
         vertex 4.245793e+04 1.819410e+05 4.580000e+05
         vertex 4.245793e+04 1.819410e+05 0.000000e+00
      endloop
   endfacet
   facet normal -3.511293e-01 9.363270e-01 0.000000e+00
      outer loop
         vertex 2.678910e+04 1.760650e+05 0.000000e+00
         vertex 2.678910e+04 1.760650e+05 4.580000e+05
         vertex 4.245793e+04 1.819410e+05 4.580000e+05
      endloop
   endfacet
   facet normal 0.000000e+00 1.000000e+00 0.000000e+00
      outer loop
         vertex 1.068000e+05 1.950000e+05 4.580000e+05
         vertex 1.090000e+05 1.950000e+05 4.304000e+05
         vertex 1.090000e+05 1.950000e+05 2.904000e+05
      endloop
   endfacet
   facet normal 0.000000e+00 1.000000e+00 -0.000000e+00
      outer loop
         vertex 1.090000e+05 1.950000e+05 4.304000e+05
         vertex 1.068000e+05 1.950000e+05 4.580000e+05
         vertex 2.270000e+05 1.950000e+05 4.304000e+05
      endloop
   endfacet
   facet normal 0.000000e+00 1.000000e+00 -0.000000e+00
      outer loop
         vertex 2.270000e+05 1.950000e+05 4.304000e+05
         vertex 1.068000e+05 1.950000e+05 4.580000e+05
         vertex 2.292000e+05 1.950000e+05 4.580000e+05
      endloop
   endfacet
   facet normal 0.000000e+00 1.000000e+00 0.000000e+00
      outer loop
         vertex 1.090000e+05 1.950000e+05 2.904000e+05
         vertex 1.068000e+05 1.950000e+05 0.000000e+00
         vertex 1.068000e+05 1.950000e+05 4.580000e+05
      endloop
   endfacet
   facet normal -1.989070e-01 9.800184e-01 0.000000e+00
      outer loop
         vertex 1.068000e+05 1.950000e+05 4.580000e+05
         vertex 1.068000e+05 1.950000e+05 0.000000e+00
         vertex 4.245793e+04 1.819410e+05 4.580000e+05
      endloop
   endfacet
   facet normal 0.000000e+00 0.000000e+00 1.000000e+00
      outer loop
         vertex 3.286788e+05 1.031217e+05 4.580000e+05
         vertex 2.292000e+05 1.950000e+05 4.580000e+05
         vertex 1.068000e+05 1.950000e+05 4.580000e+05
      endloop
   endfacet
   facet normal 8.618647e-01 -5.071384e-01 0.000000e+00
      outer loop
         vertex 2.680000e+05 0.000000e+00 4.580000e+05
         vertex 2.680000e+05 0.000000e+00 0.000000e+00
         vertex 3.286788e+05 1.031217e+05 4.580000e+05
      endloop
   endfacet
   facet normal 9.311197e-01 -3.647138e-01 0.000000e+00
      outer loop
         vertex 3.347821e+05 1.187034e+05 0.000000e+00
         vertex 3.347821e+05 1.187034e+05 4.580000e+05
         vertex 3.286788e+05 1.031217e+05 4.580000e+05
      endloop
   endfacet
   facet normal 9.311197e-01 -3.647138e-01 0.000000e+00
      outer loop
         vertex 3.347821e+05 1.187034e+05 0.000000e+00
         vertex 3.286788e+05 1.031217e+05 4.580000e+05
         vertex 3.286788e+05 1.031217e+05 0.000000e+00
      endloop
   endfacet
   facet normal 8.618647e-01 -5.071384e-01 0.000000e+00
      outer loop
         vertex 3.286788e+05 1.031217e+05 4.580000e+05
         vertex 2.680000e+05 0.000000e+00 0.000000e+00
         vertex 3.286788e+05 1.031217e+05 0.000000e+00
      endloop
   endfacet
   facet normal 0.000000e+00 0.000000e+00 1.000000e+00
      outer loop
         vertex 3.092109e+05 1.760650e+05 4.580000e+05
         vertex 2.935421e+05 1.819410e+05 4.580000e+05
         vertex 3.286788e+05 1.031217e+05 4.580000e+05
      endloop
   endfacet
   facet normal 0.000000e+00 0.000000e+00 1.000000e+00
      outer loop
         vertex 3.286788e+05 1.031217e+05 4.580000e+05
         vertex 2.935421e+05 1.819410e+05 4.580000e+05
         vertex 2.292000e+05 1.950000e+05 4.580000e+05
      endloop
   endfacet
   facet normal 0.000000e+00 0.000000e+00 1.000000e+00
      outer loop
         vertex 3.347821e+05 1.187034e+05 4.580000e+05
         vertex 3.092109e+05 1.760650e+05 4.580000e+05
         vertex 3.286788e+05 1.031217e+05 4.580000e+05
      endloop
   endfacet
   facet normal 0.000000e+00 0.000000e+00 -1.000000e+00
      outer loop
         vertex 2.680000e+05 0.000000e+00 0.000000e+00
         vertex 1.068000e+05 1.950000e+05 0.000000e+00
         vertex 3.286788e+05 1.031217e+05 0.000000e+00
      endloop
   endfacet
   facet normal 0.000000e+00 1.000000e+00 0.000000e+00
      outer loop
         vertex 1.090000e+05 1.950000e+05 2.904000e+05
         vertex 2.292000e+05 1.950000e+05 0.000000e+00
         vertex 1.068000e+05 1.950000e+05 0.000000e+00
      endloop
   endfacet
   facet normal 0.000000e+00 0.000000e+00 -1.000000e+00
      outer loop
         vertex 1.068000e+05 1.950000e+05 0.000000e+00
         vertex 2.292000e+05 1.950000e+05 0.000000e+00
         vertex 3.286788e+05 1.031217e+05 0.000000e+00
      endloop
   endfacet
   facet normal -1.000000e+00 -0.000000e+00 -0.000000e+00
      outer loop
         vertex 1.090000e+05 2.050000e+05 4.304000e+05
         vertex 1.090000e+05 2.050000e+05 2.904000e+05
         vertex 1.090000e+05 1.950000e+05 4.304000e+05
      endloop
   endfacet
   facet normal -1.000000e+00 0.000000e+00 0.000000e+00
      outer loop
         vertex 1.090000e+05 1.950000e+05 4.304000e+05
         vertex 1.090000e+05 2.050000e+05 2.904000e+05
         vertex 1.090000e+05 1.950000e+05 2.904000e+05
      endloop
   endfacet
   facet normal 0.000000e+00 0.000000e+00 1.000000e+00
      outer loop
         vertex 2.270000e+05 1.950000e+05 4.304000e+05
         vertex 1.090000e+05 2.050000e+05 4.304000e+05
         vertex 1.090000e+05 1.950000e+05 4.304000e+05
      endloop
   endfacet
   facet normal 0.000000e+00 1.000000e+00 0.000000e+00
      outer loop
         vertex 2.270000e+05 1.950000e+05 2.904000e+05
         vertex 2.292000e+05 1.950000e+05 0.000000e+00
         vertex 1.090000e+05 1.950000e+05 2.904000e+05
      endloop
   endfacet
   facet normal 0.000000e+00 0.000000e+00 -1.000000e+00
      outer loop
         vertex 1.090000e+05 2.050000e+05 2.904000e+05
         vertex 2.270000e+05 2.050000e+05 2.904000e+05
         vertex 1.090000e+05 1.950000e+05 2.904000e+05
      endloop
   endfacet
   facet normal 0.000000e+00 0.000000e+00 -1.000000e+00
      outer loop
         vertex 1.090000e+05 1.950000e+05 2.904000e+05
         vertex 2.270000e+05 2.050000e+05 2.904000e+05
         vertex 2.270000e+05 1.950000e+05 2.904000e+05
      endloop
   endfacet
   facet normal -0.000000e+00 1.000000e+00 0.000000e+00
      outer loop
         vertex 2.270000e+05 1.950000e+05 4.304000e+05
         vertex 2.292000e+05 1.950000e+05 4.580000e+05
         vertex 2.270000e+05 1.950000e+05 2.904000e+05
      endloop
   endfacet
   facet normal 1.000000e+00 0.000000e+00 0.000000e+00
      outer loop
         vertex 2.270000e+05 1.950000e+05 2.904000e+05
         vertex 2.270000e+05 2.050000e+05 4.304000e+05
         vertex 2.270000e+05 1.950000e+05 4.304000e+05
      endloop
   endfacet
   facet normal 0.000000e+00 0.000000e+00 1.000000e+00
      outer loop
         vertex 2.270000e+05 2.050000e+05 4.304000e+05
         vertex 1.090000e+05 2.050000e+05 4.304000e+05
         vertex 2.270000e+05 1.950000e+05 4.304000e+05
      endloop
   endfacet
   facet normal -0.000000e+00 1.000000e+00 0.000000e+00
      outer loop
         vertex 2.270000e+05 1.950000e+05 2.904000e+05
         vertex 2.292000e+05 1.950000e+05 4.580000e+05
         vertex 2.292000e+05 1.950000e+05 0.000000e+00
      endloop
   endfacet
   facet normal 1.989070e-01 9.800184e-01 0.000000e+00
      outer loop
         vertex 2.935421e+05 1.819410e+05 4.580000e+05
         vertex 2.935421e+05 1.819410e+05 0.000000e+00
         vertex 2.292000e+05 1.950000e+05 4.580000e+05
      endloop
   endfacet
   facet normal 1.989070e-01 9.800184e-01 0.000000e+00
      outer loop
         vertex 2.292000e+05 1.950000e+05 4.580000e+05
         vertex 2.935421e+05 1.819410e+05 0.000000e+00
         vertex 2.292000e+05 1.950000e+05 0.000000e+00
      endloop
   endfacet
   facet normal 9.984180e-01 -5.622788e-02 0.000000e+00
      outer loop
         vertex 3.357230e+05 1.354112e+05 0.000000e+00
         vertex 3.347821e+05 1.187034e+05 4.580000e+05
         vertex 3.347821e+05 1.187034e+05 0.000000e+00
      endloop
   endfacet
   facet normal -0.000000e+00 0.000000e+00 -1.000000e+00
      outer loop
         vertex 3.347821e+05 1.187034e+05 0.000000e+00
         vertex 3.286788e+05 1.031217e+05 0.000000e+00
         vertex 3.357230e+05 1.354112e+05 0.000000e+00
      endloop
   endfacet
   facet normal 9.984180e-01 -5.622788e-02 0.000000e+00
      outer loop
         vertex 3.357230e+05 1.354112e+05 0.000000e+00
         vertex 3.357230e+05 1.354112e+05 4.580000e+05
         vertex 3.347821e+05 1.187034e+05 4.580000e+05
      endloop
   endfacet
   facet normal 0.000000e+00 0.000000e+00 1.000000e+00
      outer loop
         vertex 3.357230e+05 1.354112e+05 4.580000e+05
         vertex 3.092109e+05 1.760650e+05 4.580000e+05
         vertex 3.347821e+05 1.187034e+05 4.580000e+05
      endloop
   endfacet
   facet normal 0.000000e+00 0.000000e+00 -1.000000e+00
      outer loop
         vertex 3.286788e+05 1.031217e+05 0.000000e+00
         vertex 2.292000e+05 1.950000e+05 0.000000e+00
         vertex 2.935421e+05 1.819410e+05 0.000000e+00
      endloop
   endfacet
   facet normal 0.000000e+00 0.000000e+00 -1.000000e+00
      outer loop
         vertex 3.286788e+05 1.031217e+05 0.000000e+00
         vertex 2.935421e+05 1.819410e+05 0.000000e+00
         vertex 3.092109e+05 1.760650e+05 0.000000e+00
      endloop
   endfacet
   facet normal -0.000000e+00 0.000000e+00 -1.000000e+00
      outer loop
         vertex 3.357230e+05 1.354112e+05 0.000000e+00
         vertex 3.286788e+05 1.031217e+05 0.000000e+00
         vertex 3.092109e+05 1.760650e+05 0.000000e+00
      endloop
   endfacet
   facet normal 3.511296e-01 9.363269e-01 -0.000000e+00
      outer loop
         vertex 2.935421e+05 1.819410e+05 0.000000e+00
         vertex 2.935421e+05 1.819410e+05 4.580000e+05
         vertex 3.092109e+05 1.760650e+05 4.580000e+05
      endloop
   endfacet
   facet normal 3.511296e-01 9.363269e-01 0.000000e+00
      outer loop
         vertex 2.935421e+05 1.819410e+05 0.000000e+00
         vertex 3.092109e+05 1.760650e+05 4.580000e+05
         vertex 3.092109e+05 1.760650e+05 0.000000e+00
      endloop
   endfacet
   facet normal 6.255578e-01 7.801778e-01 -0.000000e+00
      outer loop
         vertex 3.092109e+05 1.760650e+05 0.000000e+00
         vertex 3.092109e+05 1.760650e+05 4.580000e+05
         vertex 3.222667e+05 1.655967e+05 4.580000e+05
      endloop
   endfacet
   facet normal 0.000000e+00 0.000000e+00 1.000000e+00
      outer loop
         vertex 3.357230e+05 1.354112e+05 4.580000e+05
         vertex 3.222667e+05 1.655967e+05 4.580000e+05
         vertex 3.092109e+05 1.760650e+05 4.580000e+05
      endloop
   endfacet
   facet normal 0.000000e+00 1.000000e+00 0.000000e+00
      outer loop
         vertex 2.270000e+05 2.050000e+05 4.304000e+05
         vertex 1.680000e+05 2.050000e+05 4.154000e+05
         vertex 1.090000e+05 2.050000e+05 4.304000e+05
      endloop
   endfacet
   facet normal 0.000000e+00 1.000000e+00 0.000000e+00
      outer loop
         vertex 1.680000e+05 2.050000e+05 4.154000e+05
         vertex 1.589473e+05 2.050000e+05 4.146499e+05
         vertex 1.090000e+05 2.050000e+05 4.304000e+05
      endloop
   endfacet
   facet normal 0.000000e+00 1.000000e+00 0.000000e+00
      outer loop
         vertex 1.090000e+05 2.050000e+05 4.304000e+05
         vertex 1.589473e+05 2.050000e+05 4.146499e+05
         vertex 1.418229e+05 2.050000e+05 4.087711e+05
      endloop
   endfacet
   facet normal 0.000000e+00 1.000000e+00 0.000000e+00
      outer loop
         vertex 1.090000e+05 2.050000e+05 4.304000e+05
         vertex 1.418229e+05 2.050000e+05 4.087711e+05
         vertex 1.275352e+05 2.050000e+05 3.976505e+05
      endloop
   endfacet
   facet normal 0.000000e+00 1.000000e+00 0.000000e+00
      outer loop
         vertex 1.275352e+05 2.050000e+05 3.976505e+05
         vertex 1.176325e+05 2.050000e+05 3.824933e+05
         vertex 1.090000e+05 2.050000e+05 4.304000e+05
      endloop
   endfacet
   facet normal 0.000000e+00 1.000000e+00 0.000000e+00
      outer loop
         vertex 1.090000e+05 2.050000e+05 4.304000e+05
         vertex 1.176325e+05 2.050000e+05 3.824933e+05
         vertex 1.131879e+05 2.050000e+05 3.649419e+05
      endloop
   endfacet
   facet normal 0.000000e+00 1.000000e+00 0.000000e+00
      outer loop
         vertex 1.090000e+05 2.050000e+05 4.304000e+05
         vertex 1.131879e+05 2.050000e+05 3.649419e+05
         vertex 1.090000e+05 2.050000e+05 2.904000e+05
      endloop
   endfacet
   facet normal 0.000000e+00 1.000000e+00 0.000000e+00
      outer loop
         vertex 1.219558e+05 2.050000e+05 3.303178e+05
         vertex 1.342183e+05 2.050000e+05 3.169973e+05
         vertex 1.090000e+05 2.050000e+05 2.904000e+05
      endloop
   endfacet
   facet normal 0.000000e+00 1.000000e+00 0.000000e+00
      outer loop
         vertex 1.342183e+05 2.050000e+05 3.169973e+05
         vertex 1.501415e+05 2.050000e+05 3.083801e+05
         vertex 1.090000e+05 2.050000e+05 2.904000e+05
      endloop
   endfacet
   facet normal 0.000000e+00 1.000000e+00 0.000000e+00
      outer loop
         vertex 1.090000e+05 2.050000e+05 2.904000e+05
         vertex 1.501415e+05 2.050000e+05 3.083801e+05
         vertex 1.680000e+05 2.050000e+05 3.054000e+05
      endloop
   endfacet
   facet normal 0.000000e+00 1.000000e+00 0.000000e+00
      outer loop
         vertex 1.090000e+05 2.050000e+05 2.904000e+05
         vertex 1.680000e+05 2.050000e+05 3.054000e+05
         vertex 2.270000e+05 2.050000e+05 2.904000e+05
      endloop
   endfacet
   facet normal 0.000000e+00 1.000000e+00 0.000000e+00
      outer loop
         vertex 1.090000e+05 2.050000e+05 2.904000e+05
         vertex 1.131879e+05 2.050000e+05 3.649419e+05
         vertex 1.146830e+05 2.050000e+05 3.468983e+05
      endloop
   endfacet
   facet normal 0.000000e+00 1.000000e+00 0.000000e+00
      outer loop
         vertex 1.090000e+05 2.050000e+05 2.904000e+05
         vertex 1.146830e+05 2.050000e+05 3.468983e+05
         vertex 1.219558e+05 2.050000e+05 3.303178e+05
      endloop
   endfacet
   facet normal 1.000000e+00 0.000000e+00 -0.000000e+00
      outer loop
         vertex 2.270000e+05 2.050000e+05 2.904000e+05
         vertex 2.270000e+05 2.050000e+05 4.304000e+05
         vertex 2.270000e+05 1.950000e+05 2.904000e+05
      endloop
   endfacet
   facet normal 0.000000e+00 1.000000e+00 0.000000e+00
      outer loop
         vertex 2.270000e+05 2.050000e+05 2.904000e+05
         vertex 2.017817e+05 2.050000e+05 3.169973e+05
         vertex 2.140442e+05 2.050000e+05 3.303178e+05
      endloop
   endfacet
   facet normal 0.000000e+00 1.000000e+00 0.000000e+00
      outer loop
         vertex 2.270000e+05 2.050000e+05 2.904000e+05
         vertex 1.680000e+05 2.050000e+05 3.054000e+05
         vertex 1.858585e+05 2.050000e+05 3.083801e+05
      endloop
   endfacet
   facet normal 0.000000e+00 1.000000e+00 0.000000e+00
      outer loop
         vertex 2.270000e+05 2.050000e+05 2.904000e+05
         vertex 1.858585e+05 2.050000e+05 3.083801e+05
         vertex 2.017817e+05 2.050000e+05 3.169973e+05
      endloop
   endfacet
   facet normal -0.000000e+00 1.000000e+00 0.000000e+00
      outer loop
         vertex 2.140442e+05 2.050000e+05 3.303178e+05
         vertex 2.213170e+05 2.050000e+05 3.468983e+05
         vertex 2.270000e+05 2.050000e+05 2.904000e+05
      endloop
   endfacet
   facet normal 0.000000e+00 1.000000e+00 0.000000e+00
      outer loop
         vertex 2.270000e+05 2.050000e+05 2.904000e+05
         vertex 2.213170e+05 2.050000e+05 3.468983e+05
         vertex 2.228122e+05 2.050000e+05 3.649419e+05
      endloop
   endfacet
   facet normal 0.000000e+00 1.000000e+00 -0.000000e+00
      outer loop
         vertex 2.270000e+05 2.050000e+05 2.904000e+05
         vertex 2.228122e+05 2.050000e+05 3.649419e+05
         vertex 2.270000e+05 2.050000e+05 4.304000e+05
      endloop
   endfacet
   facet normal 0.000000e+00 1.000000e+00 -0.000000e+00
      outer loop
         vertex 2.084648e+05 2.050000e+05 3.976505e+05
         vertex 1.941771e+05 2.050000e+05 4.087711e+05
         vertex 2.270000e+05 2.050000e+05 4.304000e+05
      endloop
   endfacet
   facet normal 0.000000e+00 1.000000e+00 -0.000000e+00
      outer loop
         vertex 1.941771e+05 2.050000e+05 4.087711e+05
         vertex 1.770527e+05 2.050000e+05 4.146499e+05
         vertex 2.270000e+05 2.050000e+05 4.304000e+05
      endloop
   endfacet
   facet normal 0.000000e+00 1.000000e+00 0.000000e+00
      outer loop
         vertex 2.270000e+05 2.050000e+05 4.304000e+05
         vertex 1.770527e+05 2.050000e+05 4.146499e+05
         vertex 1.680000e+05 2.050000e+05 4.154000e+05
      endloop
   endfacet
   facet normal 0.000000e+00 1.000000e+00 0.000000e+00
      outer loop
         vertex 2.270000e+05 2.050000e+05 4.304000e+05
         vertex 2.228122e+05 2.050000e+05 3.649419e+05
         vertex 2.183675e+05 2.050000e+05 3.824933e+05
      endloop
   endfacet
   facet normal 0.000000e+00 1.000000e+00 0.000000e+00
      outer loop
         vertex 2.270000e+05 2.050000e+05 4.304000e+05
         vertex 2.183675e+05 2.050000e+05 3.824933e+05
         vertex 2.084648e+05 2.050000e+05 3.976505e+05
      endloop
   endfacet
   facet normal 9.661813e-01 2.578637e-01 0.000000e+00
      outer loop
         vertex 3.314078e+05 1.515797e+05 0.000000e+00
         vertex 3.357230e+05 1.354112e+05 4.580000e+05
         vertex 3.357230e+05 1.354112e+05 0.000000e+00
      endloop
   endfacet
   facet normal 0.000000e+00 0.000000e+00 -1.000000e+00
      outer loop
         vertex 3.357230e+05 1.354112e+05 0.000000e+00
         vertex 3.092109e+05 1.760650e+05 0.000000e+00
         vertex 3.314078e+05 1.515797e+05 0.000000e+00
      endloop
   endfacet
   facet normal 9.661813e-01 2.578637e-01 -0.000000e+00
      outer loop
         vertex 3.314078e+05 1.515797e+05 0.000000e+00
         vertex 3.314078e+05 1.515797e+05 4.580000e+05
         vertex 3.357230e+05 1.354112e+05 4.580000e+05
      endloop
   endfacet
   facet normal 0.000000e+00 0.000000e+00 1.000000e+00
      outer loop
         vertex 3.314078e+05 1.515797e+05 4.580000e+05
         vertex 3.222667e+05 1.655967e+05 4.580000e+05
         vertex 3.357230e+05 1.354112e+05 4.580000e+05
      endloop
   endfacet
   facet normal 6.255578e-01 7.801778e-01 0.000000e+00
      outer loop
         vertex 3.092109e+05 1.760650e+05 0.000000e+00
         vertex 3.222667e+05 1.655967e+05 4.580000e+05
         vertex 3.222667e+05 1.655967e+05 0.000000e+00
      endloop
   endfacet
   facet normal 0.000000e+00 0.000000e+00 -1.000000e+00
      outer loop
         vertex 3.314078e+05 1.515797e+05 0.000000e+00
         vertex 3.092109e+05 1.760650e+05 0.000000e+00
         vertex 3.222667e+05 1.655967e+05 0.000000e+00
      endloop
   endfacet
   facet normal 8.376217e-01 5.462507e-01 -0.000000e+00
      outer loop
         vertex 3.222667e+05 1.655967e+05 0.000000e+00
         vertex 3.222667e+05 1.655967e+05 4.580000e+05
         vertex 3.314078e+05 1.515797e+05 4.580000e+05
      endloop
   endfacet
   facet normal 8.257898e-02 0.000000e+00 9.965845e-01
      outer loop
         vertex 1.770527e+05 2.910000e+05 4.146499e+05
         vertex 1.680000e+05 2.910000e+05 4.154000e+05
         vertex 1.680000e+05 2.050000e+05 4.154000e+05
      endloop
   endfacet
   facet normal -8.257898e-02 0.000000e+00 9.965845e-01
      outer loop
         vertex 1.680000e+05 2.050000e+05 4.154000e+05
         vertex 1.680000e+05 2.910000e+05 4.154000e+05
         vertex 1.589473e+05 2.050000e+05 4.146499e+05
      endloop
   endfacet
   facet normal 8.257898e-02 -0.000000e+00 9.965845e-01
      outer loop
         vertex 1.770527e+05 2.050000e+05 4.146499e+05
         vertex 1.770527e+05 2.910000e+05 4.146499e+05
         vertex 1.680000e+05 2.050000e+05 4.154000e+05
      endloop
   endfacet
   facet normal -8.257898e-02 0.000000e+00 9.965845e-01
      outer loop
         vertex 1.680000e+05 2.910000e+05 4.154000e+05
         vertex 1.589473e+05 2.910000e+05 4.146499e+05
         vertex 1.589473e+05 2.050000e+05 4.146499e+05
      endloop
   endfacet
   facet normal -3.246993e-01 0.000000e+00 9.458173e-01
      outer loop
         vertex 1.589473e+05 2.050000e+05 4.146499e+05
         vertex 1.589473e+05 2.910000e+05 4.146499e+05
         vertex 1.418229e+05 2.910000e+05 4.087711e+05
      endloop
   endfacet
   facet normal -3.246993e-01 0.000000e+00 9.458173e-01
      outer loop
         vertex 1.589473e+05 2.050000e+05 4.146499e+05
         vertex 1.418229e+05 2.910000e+05 4.087711e+05
         vertex 1.418229e+05 2.050000e+05 4.087711e+05
      endloop
   endfacet
   facet normal -6.142137e-01 0.000000e+00 7.891398e-01
      outer loop
         vertex 1.418229e+05 2.050000e+05 4.087711e+05
         vertex 1.418229e+05 2.910000e+05 4.087711e+05
         vertex 1.275352e+05 2.910000e+05 3.976505e+05
      endloop
   endfacet
   facet normal -6.142137e-01 0.000000e+00 7.891398e-01
      outer loop
         vertex 1.418229e+05 2.050000e+05 4.087711e+05
         vertex 1.275352e+05 2.910000e+05 3.976505e+05
         vertex 1.275352e+05 2.050000e+05 3.976505e+05
      endloop
   endfacet
   facet normal -8.371659e-01 0.000000e+00 5.469490e-01
      outer loop
         vertex 1.275352e+05 2.050000e+05 3.976505e+05
         vertex 1.275352e+05 2.910000e+05 3.976505e+05
         vertex 1.176325e+05 2.910000e+05 3.824933e+05
      endloop
   endfacet
   facet normal -8.371659e-01 0.000000e+00 5.469490e-01
      outer loop
         vertex 1.275352e+05 2.050000e+05 3.976505e+05
         vertex 1.176325e+05 2.910000e+05 3.824933e+05
         vertex 1.176325e+05 2.050000e+05 3.824933e+05
      endloop
   endfacet
   facet normal -9.694003e-01 0.000000e+00 2.454854e-01
      outer loop
         vertex 1.176325e+05 2.050000e+05 3.824933e+05
         vertex 1.176325e+05 2.910000e+05 3.824933e+05
         vertex 1.131879e+05 2.910000e+05 3.649419e+05
      endloop
   endfacet
   facet normal -9.694003e-01 0.000000e+00 2.454854e-01
      outer loop
         vertex 1.176325e+05 2.050000e+05 3.824933e+05
         vertex 1.131879e+05 2.910000e+05 3.649419e+05
         vertex 1.131879e+05 2.050000e+05 3.649419e+05
      endloop
   endfacet
   facet normal -9.965845e-01 0.000000e+00 -8.257938e-02
      outer loop
         vertex 1.131879e+05 2.050000e+05 3.649419e+05
         vertex 1.131879e+05 2.910000e+05 3.649419e+05
         vertex 1.146830e+05 2.910000e+05 3.468983e+05
      endloop
   endfacet
   facet normal -9.965845e-01 0.000000e+00 -8.257938e-02
      outer loop
         vertex 1.131879e+05 2.050000e+05 3.649419e+05
         vertex 1.146830e+05 2.910000e+05 3.468983e+05
         vertex 1.146830e+05 2.050000e+05 3.468983e+05
      endloop
   endfacet
   facet normal -9.157735e-01 0.000000e+00 -4.016950e-01
      outer loop
         vertex 1.146830e+05 2.050000e+05 3.468983e+05
         vertex 1.219558e+05 2.910000e+05 3.303178e+05
         vertex 1.219558e+05 2.050000e+05 3.303178e+05
      endloop
   endfacet
   facet normal -7.357236e-01 0.000000e+00 -6.772819e-01
      outer loop
         vertex 1.219558e+05 2.050000e+05 3.303178e+05
         vertex 1.219558e+05 2.910000e+05 3.303178e+05
         vertex 1.342183e+05 2.910000e+05 3.169973e+05
      endloop
   endfacet
   facet normal -7.357236e-01 0.000000e+00 -6.772819e-01
      outer loop
         vertex 1.219558e+05 2.050000e+05 3.303178e+05
         vertex 1.342183e+05 2.910000e+05 3.169973e+05
         vertex 1.342183e+05 2.050000e+05 3.169973e+05
      endloop
   endfacet
   facet normal -4.759472e-01 0.000000e+00 -8.794739e-01
      outer loop
         vertex 1.342183e+05 2.050000e+05 3.169973e+05
         vertex 1.342183e+05 2.910000e+05 3.169973e+05
         vertex 1.501415e+05 2.910000e+05 3.083801e+05
      endloop
   endfacet
   facet normal -4.759472e-01 0.000000e+00 -8.794739e-01
      outer loop
         vertex 1.342183e+05 2.050000e+05 3.169973e+05
         vertex 1.501415e+05 2.910000e+05 3.083801e+05
         vertex 1.501415e+05 2.050000e+05 3.083801e+05
      endloop
   endfacet
   facet normal -1.645952e-01 0.000000e+00 -9.863612e-01
      outer loop
         vertex 1.501415e+05 2.050000e+05 3.083801e+05
         vertex 1.501415e+05 2.910000e+05 3.083801e+05
         vertex 1.680000e+05 2.910000e+05 3.054000e+05
      endloop
   endfacet
   facet normal -1.645952e-01 0.000000e+00 -9.863612e-01
      outer loop
         vertex 1.501415e+05 2.050000e+05 3.083801e+05
         vertex 1.680000e+05 2.910000e+05 3.054000e+05
         vertex 1.680000e+05 2.050000e+05 3.054000e+05
      endloop
   endfacet
   facet normal 1.645952e-01 0.000000e+00 -9.863612e-01
      outer loop
         vertex 1.680000e+05 2.050000e+05 3.054000e+05
         vertex 1.680000e+05 2.910000e+05 3.054000e+05
         vertex 1.858585e+05 2.910000e+05 3.083801e+05
      endloop
   endfacet
   facet normal 1.645952e-01 0.000000e+00 -9.863612e-01
      outer loop
         vertex 1.680000e+05 2.050000e+05 3.054000e+05
         vertex 1.858585e+05 2.910000e+05 3.083801e+05
         vertex 1.858585e+05 2.050000e+05 3.083801e+05
      endloop
   endfacet
   facet normal -9.157735e-01 0.000000e+00 -4.016950e-01
      outer loop
         vertex 1.146830e+05 2.050000e+05 3.468983e+05
         vertex 1.146830e+05 2.910000e+05 3.468983e+05
         vertex 1.219558e+05 2.910000e+05 3.303178e+05
      endloop
   endfacet
   facet normal 4.759476e-01 0.000000e+00 -8.794737e-01
      outer loop
         vertex 1.858585e+05 2.050000e+05 3.083801e+05
         vertex 2.017817e+05 2.910000e+05 3.169973e+05
         vertex 2.017817e+05 2.050000e+05 3.169973e+05
      endloop
   endfacet
   facet normal 7.357232e-01 0.000000e+00 -6.772824e-01
      outer loop
         vertex 2.017817e+05 2.050000e+05 3.169973e+05
         vertex 2.017817e+05 2.910000e+05 3.169973e+05
         vertex 2.140442e+05 2.910000e+05 3.303178e+05
      endloop
   endfacet
   facet normal 7.357232e-01 0.000000e+00 -6.772824e-01
      outer loop
         vertex 2.017817e+05 2.050000e+05 3.169973e+05
         vertex 2.140442e+05 2.910000e+05 3.303178e+05
         vertex 2.140442e+05 2.050000e+05 3.303178e+05
      endloop
   endfacet
   facet normal 9.157735e-01 0.000000e+00 -4.016950e-01
      outer loop
         vertex 2.140442e+05 2.050000e+05 3.303178e+05
         vertex 2.140442e+05 2.910000e+05 3.303178e+05
         vertex 2.213170e+05 2.910000e+05 3.468983e+05
      endloop
   endfacet
   facet normal 9.157735e-01 0.000000e+00 -4.016950e-01
      outer loop
         vertex 2.140442e+05 2.050000e+05 3.303178e+05
         vertex 2.213170e+05 2.910000e+05 3.468983e+05
         vertex 2.213170e+05 2.050000e+05 3.468983e+05
      endloop
   endfacet
   facet normal 4.759476e-01 0.000000e+00 -8.794737e-01
      outer loop
         vertex 1.858585e+05 2.050000e+05 3.083801e+05
         vertex 1.858585e+05 2.910000e+05 3.083801e+05
         vertex 2.017817e+05 2.910000e+05 3.169973e+05
      endloop
   endfacet
   facet normal 9.965845e-01 0.000000e+00 -8.257981e-02
      outer loop
         vertex 2.213170e+05 2.050000e+05 3.468983e+05
         vertex 2.213170e+05 2.910000e+05 3.468983e+05
         vertex 2.228122e+05 2.910000e+05 3.649419e+05
      endloop
   endfacet
   facet normal 9.965845e-01 0.000000e+00 -8.257981e-02
      outer loop
         vertex 2.213170e+05 2.050000e+05 3.468983e+05
         vertex 2.228122e+05 2.910000e+05 3.649419e+05
         vertex 2.228122e+05 2.050000e+05 3.649419e+05
      endloop
   endfacet
   facet normal 9.694001e-01 -0.000000e+00 2.454862e-01
      outer loop
         vertex 2.228122e+05 2.050000e+05 3.649419e+05
         vertex 2.228122e+05 2.910000e+05 3.649419e+05
         vertex 2.183675e+05 2.910000e+05 3.824933e+05
      endloop
   endfacet
   facet normal 9.694001e-01 0.000000e+00 2.454862e-01
      outer loop
         vertex 2.228122e+05 2.050000e+05 3.649419e+05
         vertex 2.183675e+05 2.910000e+05 3.824933e+05
         vertex 2.183675e+05 2.050000e+05 3.824933e+05
      endloop
   endfacet
   facet normal 8.371661e-01 0.000000e+00 5.469487e-01
      outer loop
         vertex 2.183675e+05 2.050000e+05 3.824933e+05
         vertex 2.084648e+05 2.910000e+05 3.976505e+05
         vertex 2.084648e+05 2.050000e+05 3.976505e+05
      endloop
   endfacet
   facet normal 6.142137e-01 -0.000000e+00 7.891398e-01
      outer loop
         vertex 2.084648e+05 2.050000e+05 3.976505e+05
         vertex 2.084648e+05 2.910000e+05 3.976505e+05
         vertex 1.941771e+05 2.910000e+05 4.087711e+05
      endloop
   endfacet
   facet normal 6.142137e-01 0.000000e+00 7.891398e-01
      outer loop
         vertex 2.084648e+05 2.050000e+05 3.976505e+05
         vertex 1.941771e+05 2.910000e+05 4.087711e+05
         vertex 1.941771e+05 2.050000e+05 4.087711e+05
      endloop
   endfacet
   facet normal 3.246993e-01 -0.000000e+00 9.458173e-01
      outer loop
         vertex 1.941771e+05 2.050000e+05 4.087711e+05
         vertex 1.941771e+05 2.910000e+05 4.087711e+05
         vertex 1.770527e+05 2.910000e+05 4.146499e+05
      endloop
   endfacet
   facet normal 3.246993e-01 0.000000e+00 9.458173e-01
      outer loop
         vertex 1.941771e+05 2.050000e+05 4.087711e+05
         vertex 1.770527e+05 2.910000e+05 4.146499e+05
         vertex 1.770527e+05 2.050000e+05 4.146499e+05
      endloop
   endfacet
   facet normal 8.371661e-01 -0.000000e+00 5.469487e-01
      outer loop
         vertex 2.183675e+05 2.050000e+05 3.824933e+05
         vertex 2.183675e+05 2.910000e+05 3.824933e+05
         vertex 2.084648e+05 2.910000e+05 3.976505e+05
      endloop
   endfacet
   facet normal 8.376217e-01 5.462507e-01 0.000000e+00
      outer loop
         vertex 3.222667e+05 1.655967e+05 0.000000e+00
         vertex 3.314078e+05 1.515797e+05 4.580000e+05
         vertex 3.314078e+05 1.515797e+05 0.000000e+00
      endloop
   endfacet
   facet normal 0.000000e+00 1.000000e+00 0.000000e+00
      outer loop
         vertex 1.680000e+05 2.910000e+05 4.154000e+05
         vertex 1.770527e+05 2.910000e+05 4.146499e+05
         vertex 1.680000e+05 2.910000e+05 3.604000e+05
      endloop
   endfacet
   facet normal 0.000000e+00 1.000000e+00 0.000000e+00
      outer loop
         vertex 1.770527e+05 2.910000e+05 4.146499e+05
         vertex 1.941771e+05 2.910000e+05 4.087711e+05
         vertex 1.680000e+05 2.910000e+05 3.604000e+05
      endloop
   endfacet
   facet normal 0.000000e+00 1.000000e+00 0.000000e+00
      outer loop
         vertex 1.680000e+05 2.910000e+05 4.154000e+05
         vertex 1.680000e+05 2.910000e+05 3.604000e+05
         vertex 1.589473e+05 2.910000e+05 4.146499e+05
      endloop
   endfacet
   facet normal 0.000000e+00 1.000000e+00 0.000000e+00
      outer loop
         vertex 1.680000e+05 2.910000e+05 3.604000e+05
         vertex 1.418229e+05 2.910000e+05 4.087711e+05
         vertex 1.589473e+05 2.910000e+05 4.146499e+05
      endloop
   endfacet
   facet normal 0.000000e+00 1.000000e+00 0.000000e+00
      outer loop
         vertex 1.680000e+05 2.910000e+05 3.604000e+05
         vertex 1.275352e+05 2.910000e+05 3.976505e+05
         vertex 1.418229e+05 2.910000e+05 4.087711e+05
      endloop
   endfacet
   facet normal -0.000000e+00 1.000000e+00 0.000000e+00
      outer loop
         vertex 1.176325e+05 2.910000e+05 3.824933e+05
         vertex 1.275352e+05 2.910000e+05 3.976505e+05
         vertex 1.680000e+05 2.910000e+05 3.604000e+05
      endloop
   endfacet
   facet normal 0.000000e+00 1.000000e+00 0.000000e+00
      outer loop
         vertex 1.680000e+05 2.910000e+05 3.604000e+05
         vertex 1.131879e+05 2.910000e+05 3.649419e+05
         vertex 1.176325e+05 2.910000e+05 3.824933e+05
      endloop
   endfacet
   facet normal 0.000000e+00 1.000000e+00 0.000000e+00
      outer loop
         vertex 1.680000e+05 2.910000e+05 3.604000e+05
         vertex 1.146830e+05 2.910000e+05 3.468983e+05
         vertex 1.131879e+05 2.910000e+05 3.649419e+05
      endloop
   endfacet
   facet normal 0.000000e+00 1.000000e+00 -0.000000e+00
      outer loop
         vertex 1.219558e+05 2.910000e+05 3.303178e+05
         vertex 1.146830e+05 2.910000e+05 3.468983e+05
         vertex 1.680000e+05 2.910000e+05 3.604000e+05
      endloop
   endfacet
   facet normal 0.000000e+00 1.000000e+00 0.000000e+00
      outer loop
         vertex 1.680000e+05 2.910000e+05 3.604000e+05
         vertex 1.342183e+05 2.910000e+05 3.169973e+05
         vertex 1.219558e+05 2.910000e+05 3.303178e+05
      endloop
   endfacet
   facet normal 0.000000e+00 1.000000e+00 0.000000e+00
      outer loop
         vertex 1.680000e+05 2.910000e+05 3.604000e+05
         vertex 1.501415e+05 2.910000e+05 3.083801e+05
         vertex 1.342183e+05 2.910000e+05 3.169973e+05
      endloop
   endfacet
   facet normal 0.000000e+00 1.000000e+00 -0.000000e+00
      outer loop
         vertex 1.680000e+05 2.910000e+05 3.054000e+05
         vertex 1.501415e+05 2.910000e+05 3.083801e+05
         vertex 1.680000e+05 2.910000e+05 3.604000e+05
      endloop
   endfacet
   facet normal 0.000000e+00 1.000000e+00 0.000000e+00
      outer loop
         vertex 1.680000e+05 2.910000e+05 3.604000e+05
         vertex 1.858585e+05 2.910000e+05 3.083801e+05
         vertex 1.680000e+05 2.910000e+05 3.054000e+05
      endloop
   endfacet
   facet normal 0.000000e+00 1.000000e+00 0.000000e+00
      outer loop
         vertex 1.680000e+05 2.910000e+05 3.604000e+05
         vertex 2.017817e+05 2.910000e+05 3.169973e+05
         vertex 1.858585e+05 2.910000e+05 3.083801e+05
      endloop
   endfacet
   facet normal 0.000000e+00 1.000000e+00 0.000000e+00
      outer loop
         vertex 2.140442e+05 2.910000e+05 3.303178e+05
         vertex 2.017817e+05 2.910000e+05 3.169973e+05
         vertex 1.680000e+05 2.910000e+05 3.604000e+05
      endloop
   endfacet
   facet normal 0.000000e+00 1.000000e+00 0.000000e+00
      outer loop
         vertex 1.680000e+05 2.910000e+05 3.604000e+05
         vertex 2.213170e+05 2.910000e+05 3.468983e+05
         vertex 2.140442e+05 2.910000e+05 3.303178e+05
      endloop
   endfacet
   facet normal -0.000000e+00 1.000000e+00 0.000000e+00
      outer loop
         vertex 1.680000e+05 2.910000e+05 3.604000e+05
         vertex 2.228122e+05 2.910000e+05 3.649419e+05
         vertex 2.213170e+05 2.910000e+05 3.468983e+05
      endloop
   endfacet
   facet normal 0.000000e+00 1.000000e+00 0.000000e+00
      outer loop
         vertex 2.183675e+05 2.910000e+05 3.824933e+05
         vertex 2.228122e+05 2.910000e+05 3.649419e+05
         vertex 1.680000e+05 2.910000e+05 3.604000e+05
      endloop
   endfacet
   facet normal 0.000000e+00 1.000000e+00 0.000000e+00
      outer loop
         vertex 1.680000e+05 2.910000e+05 3.604000e+05
         vertex 2.084648e+05 2.910000e+05 3.976505e+05
         vertex 2.183675e+05 2.910000e+05 3.824933e+05
      endloop
   endfacet
   facet normal 0.000000e+00 1.000000e+00 0.000000e+00
      outer loop
         vertex 1.680000e+05 2.910000e+05 3.604000e+05
         vertex 1.941771e+05 2.910000e+05 4.087711e+05
         vertex 2.084648e+05 2.910000e+05 3.976505e+05
      endloop
   endfacet
endsolid